<svg width="24" height="24" viewBox="0 0 24 24" fill="none" xmlns="http://www.w3.org/2000/svg">
<path d="M11.9688 0C16.8318 0 20.9688 4.15 20.9688 8.824C20.9688 10.022 20.7028 11.164 20.1768 12.221C18.4968 15.595 15.1508 20.281 12.3368 23.346L11.9688 23.747L11.6008 23.346C8.78781 20.283 5.44081 15.596 3.76081 12.221C3.2354 11.1656 2.96417 10.0019 2.96881 8.823C2.96881 4.15 7.10581 0 11.9688 0ZM11.9688 1C7.65881 1 3.96881 4.701 3.96881 8.823C3.96881 9.867 4.19881 10.857 4.65581 11.775C6.21881 14.915 9.29581 19.266 11.9688 22.263C14.6418 19.265 17.7188 14.914 19.2818 11.775C19.7381 10.8585 19.9734 9.84782 19.9688 8.824C19.9688 4.7 16.2788 1 11.9688 1ZM11.9688 5C13.0297 5 14.0471 5.42143 14.7972 6.17157C15.5474 6.92172 15.9688 7.93913 15.9688 9C15.9688 10.0609 15.5474 11.0783 14.7972 11.8284C14.0471 12.5786 13.0297 13 11.9688 13C10.9079 13 9.89053 12.5786 9.14038 11.8284C8.39024 11.0783 7.96881 10.0609 7.96881 9C7.96881 7.93913 8.39024 6.92172 9.14038 6.17157C9.89053 5.42143 10.9079 5 11.9688 5ZM11.9688 6C11.1732 6 10.4101 6.31607 9.84749 6.87868C9.28488 7.44129 8.96881 8.20435 8.96881 9C8.96881 9.79565 9.28488 10.5587 9.84749 11.1213C10.4101 11.6839 11.1732 12 11.9688 12C12.7645 12 13.5275 11.6839 14.0901 11.1213C14.6527 10.5587 14.9688 9.79565 14.9688 9C14.9688 8.20435 14.6527 7.44129 14.0901 6.87868C13.5275 6.31607 12.7645 6 11.9688 6Z" fill="black"/>
</svg>
