<svg width="61" height="40" viewBox="0 0 61 40" fill="none" xmlns="http://www.w3.org/2000/svg">
<g clip-path="url(#clip0_618_14728)">
<path d="M42.8474 1.21513C45.0605 0.130212 46.159 0.274638 46.1829 1.37021C46.2143 2.79644 46.0019 4.68661 45.8506 6.05939C45.029 13.5058 43.6546 19.591 43.55 27.2381C47.1672 17.9263 50.2015 11.4548 54.1063 3.48251C55.3478 0.946441 56.1383 1.41808 57.1568 0.967261C61.1271 -0.789297 61.2758 0.28972 60.757 2.43447C58.8304 10.3938 53.9085 35.4469 53.1544 39.3045C52.9355 40.4204 51.7176 39.9476 51.3996 39.511C49.9867 37.5684 48.3949 37.5379 48.5738 36.2456C49.4591 29.814 52.6476 13.6774 53.4785 9.87464C49.2384 18.5133 44.8446 29.3117 42.5887 35.4343C42.1094 36.7345 41.2388 36.6392 40.6961 35.6878C39.9327 34.3517 38.4523 33.6694 38.2078 32.0905C37.4326 27.0696 39.0931 17.4999 39.3244 11.4453C37.0173 18.0587 33.1436 30.8994 31.4468 36.7005C30.7452 39.101 28.4163 38.7092 29.0353 36.3697C31.6142 26.6338 37.1675 9.4148 39.5727 3.22251C40.1377 1.76775 41.618 1.81775 42.8474 1.21513ZM28.7852 0.0187363C29.4876 0.186769 29.4304 1.01054 29.0012 2.13546C27.7347 5.45464 25.9784 9.81529 23.9702 14.9571C25.2327 14.8138 25.9174 14.7653 25.9174 14.7653C27.7299 14.5427 28.0674 15.4438 27.5572 16.403C27.1506 17.1676 26.661 16.6578 24.9648 19.1719C24.0093 20.5886 22.4492 20.9627 21.5826 21.1515C19.4951 26.6471 17.2582 32.7771 15.0845 39.3105C14.7681 40.262 13.844 40.0535 13.5662 39.6669C12.5454 38.2494 11.7926 38.2025 11.0013 37.056C10.9061 36.8704 10.72 36.6179 10.8319 36.1628C11.4139 33.7981 12.9589 28.9387 15.309 22.5414C12.3484 23.1794 9.14521 23.8653 7.82283 24.1709C6.23584 28.3422 4.68809 32.5261 3.22178 36.6594C2.31206 39.2233 -0.0557286 38.7278 0.77519 36.3045C2.09873 32.4441 3.55976 28.435 5.02475 24.5471C3.38467 24.3728 2.8299 23.2212 1.91325 22.2589C1.55929 21.8873 0.787555 21.9396 0.409685 21.4184C-0.270053 20.4822 -0.202294 20.0663 1.36755 19.6158C3.41502 19.028 5.47427 18.4815 7.54405 17.9768C10.1967 11.1696 12.5939 5.33021 13.8716 2.21431C14.8565 -0.186673 17.3954 0.036933 16.4309 2.40546C14.4708 7.21906 12.4611 12.2197 10.4777 17.2905C12.9237 16.7426 15.3837 16.2577 17.855 15.8364C19.6668 11.2113 21.5697 6.62202 23.5626 2.0712C23.702 1.75365 24.1084 1.30431 24.5317 1.23218C25.8658 1.00513 28.0353 -0.160936 28.7852 0.0187363ZM24.2429 31.1789C24.4514 31.0522 24.659 30.8978 24.8639 30.7281C24.7062 30.2663 24.5512 29.8035 24.399 29.3399C24.2445 29.5362 24.0933 29.735 23.9453 29.9363C23.0573 31.1487 23.5831 31.5802 24.2429 31.1789ZM25.4245 25.4305C26.5241 24.1961 24.3502 23.6796 24.8507 25.5676C24.8788 25.6741 24.9137 25.7992 24.953 25.9371C25.1137 25.7716 25.271 25.6027 25.4245 25.4305ZM26.5688 29.151C27.6572 28.2132 28.6969 29.1435 27.6206 30.7294C27.3892 31.0704 27.1277 31.4373 26.841 31.7986C26.9537 32.1216 27.0716 32.4428 27.1948 32.762C27.7512 34.1807 26.29 34.5364 25.819 33.3614C25.7778 33.2587 25.7349 33.1487 25.6907 33.0343C24.8026 33.8166 23.7753 34.3092 22.6778 33.9699C20.8719 33.4114 20.4126 30.883 22.0985 28.9353C22.7749 28.1538 23.284 27.6117 23.7094 27.1786C23.6051 26.8427 23.5051 26.5055 23.4095 26.1671C23.1905 25.3786 22.9929 24.4596 23.7865 23.5228C25.2748 21.7668 28.7277 23.3256 26.9811 26.0292C26.5604 26.6804 26.0686 27.2955 25.5555 27.9189C25.7316 28.4762 25.9108 29.0324 26.093 29.5878C26.2479 29.4382 26.4065 29.2926 26.5688 29.151Z" fill="black"/>
</g>
<defs>
<clipPath id="clip0_618_14728">
<rect width="61" height="40" fill="white"/>
</clipPath>
</defs>
</svg>
