<svg width="25" height="24" viewBox="0 0 25 24" fill="none" xmlns="http://www.w3.org/2000/svg">
<g clip-path="url(#clip0_618_14724)">
<path d="M18.3447 1C22.4447 1 24.9688 3.556 24.9688 7.748C24.9688 9.362 24.0078 11.346 22.2728 13.648C21.3828 14.831 20.3027 16.073 19.0767 17.353C17.7977 18.6814 16.4677 19.9596 15.0898 21.185C14.4932 21.7171 13.8878 22.2392 13.2738 22.751L12.9688 23L12.6637 22.75C12.0497 22.2385 11.4443 21.7168 10.8477 21.185C9.46975 19.9596 8.13975 18.6814 6.86075 17.353C5.63375 16.073 4.55575 14.831 3.66475 13.649C1.92975 11.346 0.96875 9.362 0.96875 7.748C0.96875 3.556 3.49275 1 7.59275 1C9.67275 1 11.8227 2.548 12.9688 4.548C14.1137 2.548 16.2627 1 18.3447 1Z" fill="white"/>
<path d="M18.3447 1C22.4447 1 24.9688 3.578 24.9688 7.807C24.9688 9.435 24.0078 11.437 22.2728 13.76C21.3828 14.952 20.3027 16.206 19.0767 17.497C17.7982 18.8364 16.4682 20.1257 15.0898 21.362C14.4933 21.8988 13.8879 22.4256 13.2738 22.942L12.9688 23.193L12.6637 22.941C12.5707 22.865 12.3998 22.721 12.1608 22.517C11.7648 22.177 11.3227 21.79 10.8477 21.362C9.46931 20.1257 8.13932 18.8364 6.86075 17.497C5.63375 16.206 4.55575 14.952 3.66475 13.76C1.92975 11.437 0.96875 9.435 0.96875 7.807C0.96875 3.578 3.49275 1 7.59275 1C9.67275 1 11.8227 2.562 12.9688 4.58C14.1137 2.56 16.2627 1 18.3447 1ZM12.9688 21.79L13.1488 21.636C13.5318 21.307 13.9608 20.932 14.4218 20.516C15.758 19.3177 17.0473 18.0681 18.2868 16.77C19.4668 15.526 20.5037 14.322 21.3547 13.183C22.9477 11.051 23.8167 9.24 23.8167 7.897C23.8167 4.257 21.7538 2.15 18.2518 2.15C16.3248 2.15 14.2027 3.918 13.4097 5.993L12.9688 7.145L12.5288 5.993C11.7338 3.919 9.61075 2.15 7.68475 2.15C4.18275 2.15 2.11975 4.257 2.11975 7.897C2.11975 9.24 2.98975 11.051 4.58175 13.183C5.43175 14.323 6.46875 15.526 7.64975 16.77C8.8892 18.0685 10.1785 19.3184 11.5147 20.517C11.9935 20.9477 12.4782 21.3718 12.9688 21.789V21.79Z" fill="black"/>
</g>
<defs>
<clipPath id="clip0_618_14724">
<rect width="24" height="24" fill="white" transform="translate(0.96875)"/>
</clipPath>
</defs>
</svg>
