<svg width="960" height="49" viewBox="0 0 960 49" fill="none" xmlns="http://www.w3.org/2000/svg">
<path d="M441 18.774C440.337 19.075 439.625 19.278 438.878 19.37C439.654 18.8912 440.232 18.1478 440.503 17.277C439.78 17.7165 438.987 18.0272 438.158 18.195C437.817 17.8191 437.4 17.5187 436.936 17.3129C436.472 17.1072 435.97 17.0006 435.462 17C433.422 17 431.769 18.694 431.769 20.783C431.769 21.08 431.801 21.369 431.864 21.645C428.795 21.488 426.074 19.982 424.253 17.693C423.935 18.251 423.753 18.902 423.753 19.595C423.753 20.908 424.405 22.065 425.396 22.743C424.808 22.7245 424.233 22.5625 423.722 22.271V22.318C423.722 24.151 424.996 25.681 426.684 26.028C426.141 26.1799 425.57 26.2021 425.017 26.093C425.487 27.597 426.851 28.69 428.467 28.721C427.707 29.3349 426.832 29.7899 425.892 30.059C424.953 30.3282 423.97 30.4061 423 30.288C424.68 31.3972 426.648 31.9883 428.661 31.988C435.453 31.988 439.168 26.222 439.168 21.222C439.168 21.058 439.164 20.895 439.158 20.732C439.883 20.1934 440.507 19.5304 441 18.774Z" fill="black"/>
<path d="M536.688 19.9081C536.468 19.0031 535.685 18.3361 534.743 18.2361C532.51 18.0001 530.252 17.9991 528.003 18.0001C525.753 18.0001 523.494 18.0001 521.263 18.2361C520.32 18.3361 519.537 19.0031 519.317 19.9081C519.003 21.1971 519 22.6031 519 23.9291C519 25.2561 519 26.6631 519.313 27.9511C519.533 28.8561 520.316 29.5241 521.258 29.6231C523.49 29.8591 525.749 29.8601 527.998 29.8591C530.248 29.8591 532.507 29.8591 534.738 29.6231C535.681 29.5231 536.464 28.8561 536.684 27.9511C536.998 26.6631 537 25.2561 537 23.9291C537 22.6031 537.002 21.1971 536.688 19.9081ZM526.306 26.4441V21.6181L530.963 24.0311L526.306 26.4441Z" fill="black"/>
<path d="M375.994 15C375.863 14.9999 375.734 15.0255 375.613 15.0754C375.493 15.1253 375.383 15.1985 375.291 15.2908C375.199 15.3832 375.125 15.4928 375.075 15.6135C375.025 15.7341 375 15.8634 375 15.994V32.006C375 32.555 375.445 33 375.994 33H384.614V26.03H382.268V23.312H384.615V21.31C384.615 18.985 386.034 17.719 388.108 17.719C389.102 17.719 389.955 17.794 390.205 17.826V20.256L388.766 20.257C387.638 20.257 387.42 20.792 387.42 21.579V23.313H390.11L389.76 26.031H387.42V33H392.006C392.27 33 392.522 32.8953 392.709 32.7089C392.895 32.5225 393 32.2696 393 32.006V15.994C393 15.8634 392.975 15.7341 392.925 15.6135C392.875 15.4928 392.801 15.3832 392.709 15.2908C392.617 15.1985 392.507 15.1253 392.387 15.0754C392.266 15.0255 392.137 14.9999 392.006 15H375.994Z" fill="black"/>
<path d="M566.766 23.0774C566.766 24.6917 567.236 26.271 568.119 27.6223C569.002 28.9735 570.26 30.0383 571.738 30.6863C571.715 30.1066 571.735 29.4106 571.883 28.7792L572.952 24.2525C572.952 24.2525 572.687 23.7217 572.687 22.9371C572.687 21.7066 573.401 20.7872 574.289 20.7872C575.045 20.7872 575.409 21.3549 575.409 22.0334C575.409 22.794 574.926 23.9303 574.676 24.9826C574.468 25.8642 575.118 26.5823 575.987 26.5823C577.561 26.5823 578.622 24.5608 578.622 22.1654C578.622 20.3451 577.395 18.9826 575.165 18.9826C572.645 18.9826 571.075 20.8611 571.075 22.9611C571.075 23.6839 571.288 24.1943 571.622 24.5894C571.776 24.7722 571.797 24.8442 571.742 25.0528C571.702 25.206 571.611 25.5734 571.572 25.7192C571.517 25.9306 571.346 26.0054 571.157 25.9279C569.995 25.4534 569.455 24.1832 569.455 22.7534C569.455 20.394 571.445 17.5639 575.393 17.5639C578.564 17.5639 580.651 19.8586 580.651 22.3232C580.651 25.5817 578.839 28.0168 576.169 28.0168C575.273 28.0168 574.428 27.5322 574.14 26.9811C574.14 26.9811 573.657 28.8956 573.555 29.2648C573.379 29.9054 573.034 30.5451 572.719 31.0445C574.393 31.5389 576.179 31.4938 577.826 30.9157C579.472 30.3375 580.895 29.2557 581.892 27.8236C582.889 26.3915 583.409 24.6819 583.38 22.9372C583.35 21.1925 582.772 19.5014 581.728 18.1037C580.683 16.706 579.225 15.6728 577.56 15.1504C575.895 14.6281 574.108 14.6433 572.452 15.1938C570.796 15.7444 569.356 16.8023 568.335 18.2175C567.315 19.6327 566.765 21.3334 566.766 23.0783V23.0774Z" fill="black"/>
<path d="M481.002 15C482.57 15.004 482.914 15.017 483.726 15.054C484.684 15.098 485.338 15.25 485.911 15.473C486.503 15.703 487.005 16.01 487.505 16.511C488.005 17.011 488.313 17.513 488.543 18.105C488.766 18.677 488.918 19.331 488.961 20.289C489.005 21.249 489.016 21.556 489.016 24C489.016 26.444 489.006 26.75 488.961 27.71C488.918 28.669 488.766 29.323 488.543 29.895C488.317 30.4955 487.962 31.0395 487.505 31.489C487.005 31.989 486.503 32.298 485.911 32.528C485.338 32.75 484.684 32.902 483.726 32.946C482.766 32.99 482.46 33 480.016 33C477.571 33 477.265 32.99 476.305 32.946C475.347 32.902 474.693 32.75 474.12 32.528C473.519 32.3017 472.975 31.9471 472.526 31.489C472.026 30.989 471.718 30.487 471.488 29.895C471.265 29.323 471.113 28.669 471.07 27.711C471.033 26.898 471.02 26.554 471.016 24.987V23.014C471.019 21.446 471.033 21.102 471.07 20.289C471.113 19.331 471.265 18.677 471.488 18.105C471.713 17.5042 472.068 16.9598 472.526 16.51C473.026 16.01 473.528 15.702 474.12 15.472C474.693 15.249 475.347 15.097 476.305 15.053C477.117 15.016 477.461 15.003 479.029 15H481.002ZM480.553 16.622H479.478C477.563 16.623 477.252 16.634 476.378 16.674C475.501 16.714 475.025 16.861 474.708 16.984C474.288 17.147 473.988 17.342 473.673 17.657C473.358 17.972 473.163 18.272 473 18.692C472.876 19.009 472.73 19.486 472.69 20.363C472.65 21.236 472.639 21.547 472.637 23.463V24.538C472.639 26.453 472.65 26.764 472.69 27.637C472.73 28.514 472.876 28.991 473 29.308C473.163 29.728 473.358 30.028 473.673 30.343C473.988 30.658 474.287 30.853 474.708 31.016C475.025 31.139 475.501 31.286 476.378 31.326C477.252 31.366 477.562 31.376 479.478 31.378H480.553C482.469 31.377 482.779 31.366 483.653 31.326C484.53 31.286 485.006 31.139 485.323 31.016C485.743 30.853 486.043 30.658 486.358 30.343C486.673 30.028 486.868 29.728 487.032 29.308C487.155 28.991 487.302 28.514 487.342 27.637C487.382 26.764 487.392 26.453 487.394 24.537V23.463C487.392 21.547 487.381 21.236 487.341 20.363C487.301 19.486 487.155 19.009 487.031 18.693C486.887 18.3017 486.657 17.9477 486.358 17.657C486.067 17.3582 485.714 17.1282 485.323 16.984C485.006 16.861 484.53 16.714 483.653 16.674C482.779 16.634 482.468 16.624 480.553 16.622ZM480.016 19.378C481.241 19.378 482.417 19.865 483.284 20.7318C484.151 21.5985 484.638 22.7742 484.638 24C484.638 25.2258 484.151 26.4015 483.284 27.2682C482.417 28.135 481.241 28.622 480.016 28.622C478.79 28.622 477.614 28.135 476.747 27.2682C475.881 26.4015 475.394 25.2258 475.394 24C475.394 22.7742 475.881 21.5985 476.747 20.7318C477.614 19.865 478.79 19.378 480.016 19.378ZM480.016 21C479.22 21 478.457 21.3161 477.894 21.8787C477.332 22.4413 477.016 23.2044 477.016 24C477.016 24.7956 477.332 25.5587 477.894 26.1213C478.457 26.6839 479.22 27 480.016 27C480.811 27 481.574 26.6839 482.137 26.1213C482.7 25.5587 483.016 24.7956 483.016 24C483.016 23.2044 482.7 22.4413 482.137 21.8787C481.574 21.3161 480.811 21 480.016 21ZM484.82 18.116C485.106 18.116 485.381 18.2298 485.583 18.4323C485.786 18.6349 485.9 18.9096 485.9 19.196C485.9 19.4824 485.786 19.7571 485.583 19.9597C485.381 20.1622 485.106 20.276 484.82 20.276C484.533 20.276 484.258 20.1622 484.056 19.9597C483.853 19.7571 483.74 19.4824 483.74 19.196C483.74 18.9096 483.853 18.6349 484.056 18.4323C484.258 18.2298 484.533 18.116 484.82 18.116Z" fill="black"/>
</svg>
