<svg width="24" height="25" viewBox="0 0 24 25" fill="none" xmlns="http://www.w3.org/2000/svg">
<path d="M11.0002 2.5C12.7174 2.4998 14.3988 2.99085 15.8459 3.9152C17.2931 4.83954 18.4456 6.15859 19.1675 7.71667C19.8893 9.27475 20.1503 11.0068 19.9198 12.7084C19.6892 14.41 18.9767 16.0102 17.8662 17.32L17.7072 17.5L21.9502 21.743L21.2432 22.45L17.0002 18.208C15.9129 19.1806 14.6054 19.8743 13.1903 20.2294C11.7753 20.5845 10.2952 20.5902 8.87744 20.2461C7.4597 19.9021 6.14685 19.2185 5.05198 18.2543C3.95711 17.2902 3.11304 16.0743 2.59246 14.7114C2.07189 13.3486 1.89043 11.8796 2.06371 10.431C2.23699 8.98248 2.75981 7.59775 3.58714 6.39613C4.41447 5.19451 5.52152 4.21203 6.81291 3.5333C8.10431 2.85458 9.54134 2.49996 11.0002 2.5ZM11.0002 3.5C8.8785 3.5 6.84367 4.34285 5.34338 5.84315C3.84308 7.34344 3.00023 9.37827 3.00023 11.5C3.00023 13.6217 3.84308 15.6566 5.34338 17.1569C6.84367 18.6571 8.8785 19.5 11.0002 19.5C13.122 19.5 15.1568 18.6571 16.6571 17.1569C18.1574 15.6566 19.0002 13.6217 19.0002 11.5C19.0002 9.37827 18.1574 7.34344 16.6571 5.84315C15.1568 4.34285 13.122 3.5 11.0002 3.5Z" fill="black"/>
</svg>
