<svg width="24" height="25" viewBox="0 0 24 25" fill="none" xmlns="http://www.w3.org/2000/svg">
<path d="M12 22.5312C17.523 22.5312 22 18.0542 22 12.5312C22 7.00825 17.523 2.53125 12 2.53125C6.477 2.53125 2 7.00825 2 12.5312C2 18.0542 6.477 22.5312 12 22.5312ZM12 23.5312C5.925 23.5312 1 18.6062 1 12.5312C1 6.45625 5.925 1.53125 12 1.53125C18.075 1.53125 23 6.45625 23 12.5312C23 18.6062 18.075 23.5312 12 23.5312ZM12 8.84325C11.865 8.84513 11.731 8.81994 11.6059 8.76914C11.4808 8.71835 11.3672 8.64299 11.2717 8.54753C11.1763 8.45206 11.1009 8.33843 11.0501 8.21334C10.9993 8.08825 10.9741 7.95425 10.976 7.81925C10.976 7.24325 11.424 6.81125 12 6.81125C12.576 6.81125 13.024 7.24325 13.024 7.81925C13.0259 7.95425 13.0007 8.08825 12.9499 8.21334C12.8991 8.33843 12.8237 8.45206 12.7283 8.54753C12.6328 8.64299 12.5192 8.71835 12.3941 8.76914C12.269 8.81994 12.135 8.84513 12 8.84325ZM11.248 17.5312V10.0913H12.752V17.5312H11.248Z" fill="black"/>
</svg>
