<svg width="25" height="24" viewBox="0 0 25 24" fill="none" xmlns="http://www.w3.org/2000/svg">
<g clip-path="url(#clip0_618_14715)">
<path d="M20.3118 18.2398C19.0688 17.8148 18.8348 17.7288 18.2648 17.4798C15.8118 16.4128 14.8198 15.1048 15.4948 13.3998C15.6368 13.0398 15.7718 12.7518 16.1058 12.0928L16.1178 12.0688C16.3968 11.5188 16.5038 11.2968 16.6298 11.0068C16.6932 10.8601 16.7499 10.7107 16.7998 10.5588C16.9908 9.98382 17.0728 9.51182 17.1808 8.38582L17.1858 8.33282L17.1908 8.28082C17.5588 4.45682 17.0438 3.03682 14.9418 2.30782C14.3057 2.09229 13.6372 1.98842 12.9658 2.00082H12.9518C12.6808 1.99682 12.4078 2.01082 12.1378 2.04482C11.7378 2.09482 11.3498 2.18282 10.9888 2.30782C8.88776 3.03782 8.37276 4.45782 8.74176 8.28182L8.74576 8.32282L8.74976 8.36582C8.85776 9.50282 8.93976 9.97882 9.13176 10.5588C9.18176 10.7118 9.23876 10.8608 9.30176 11.0068C9.42776 11.2968 9.53576 11.5188 9.81376 12.0678L9.82576 12.0928C10.1598 12.7508 10.2958 13.0398 10.4378 13.3998C11.1118 15.1048 10.1198 16.4128 7.66676 17.4798C7.09676 17.7288 6.86176 17.8158 5.62076 18.2398C3.73176 18.8878 2.79076 19.7458 2.50376 21.0558L2.50276 21.0678C2.63476 21.1048 2.80576 21.1438 3.01076 21.1858C3.82309 21.34 4.64102 21.4631 5.46276 21.5548C7.78076 21.8288 10.4768 21.9998 12.9678 21.9998C15.4588 21.9998 18.1538 21.8298 20.4708 21.5548C21.4608 21.4378 22.3168 21.3078 22.9208 21.1848C23.1258 21.1448 23.2958 21.1048 23.4278 21.0688C23.1238 19.7308 22.1838 18.8828 20.3118 18.2398ZM15.2698 1.36382C17.9168 2.28082 18.5928 4.14682 18.1868 8.37682L18.1818 8.42882L18.1768 8.48182C18.0618 9.67582 17.9688 10.2128 17.7498 10.8728C17.6898 11.0548 17.6218 11.2328 17.5468 11.4048C17.4118 11.7168 17.2968 11.9548 17.0098 12.5218L16.9978 12.5448C16.6768 13.1788 16.5528 13.4428 16.4238 13.7668C16.0008 14.8388 16.6408 15.6828 18.6638 16.5628C19.2038 16.7978 19.4168 16.8768 20.6358 17.2928C22.8278 18.0458 24.0348 19.1478 24.4208 20.9428L24.4658 21.3628C24.4658 22.0028 23.4498 22.2088 20.5878 22.5478C18.0584 22.8426 15.5143 22.9935 12.9678 22.9998C10.4206 22.9935 7.87583 22.8426 5.34576 22.5478C2.48176 22.2088 1.46576 22.0038 1.46876 21.3058L1.51876 20.8928C1.89876 19.1468 3.10576 18.0448 5.29676 17.2928C6.51376 16.8768 6.72876 16.7978 7.26776 16.5628C9.29076 15.6828 9.93076 14.8388 9.50776 13.7668C9.37976 13.4428 9.25476 13.1768 8.93376 12.5448L8.92176 12.5198C8.73057 12.1541 8.55148 11.7823 8.38476 11.4048C8.3091 11.2306 8.24136 11.0531 8.18176 10.8728C7.96176 10.2068 7.86876 9.66582 7.75376 8.46082L7.74976 8.41782L7.74576 8.37682C7.33776 4.14982 8.01576 2.28082 10.6608 1.36382C11.0998 1.21239 11.5537 1.10781 12.0148 1.05182C12.3278 1.01382 12.6448 0.995819 12.9588 1.00082C13.7588 0.990819 14.5538 1.11382 15.2698 1.36382Z" fill="black"/>
</g>
<defs>
<clipPath id="clip0_618_14715">
<rect width="24" height="24" fill="white" transform="translate(0.96875)"/>
</clipPath>
</defs>
</svg>
