<svg width="36" height="25" viewBox="0 0 36 25" fill="none" xmlns="http://www.w3.org/2000/svg">
<g clip-path="url(#clip0_618_15050)">
<path d="M25.287 0.994703C26.5931 0.343752 27.2414 0.430408 27.2555 1.08775C27.274 1.94349 27.1487 3.07759 27.0593 3.90126C26.5745 8.3691 25.7633 12.0202 25.7017 16.6085C27.8364 11.0214 29.6271 7.13851 31.9316 2.35513C32.6643 0.83349 33.1308 1.11647 33.7319 0.845982C36.075 -0.207953 36.1628 0.439457 35.8566 1.72631C34.7196 6.50192 31.8148 21.5338 31.3698 23.8483C31.2406 24.5179 30.5219 24.2342 30.3342 23.9722C29.5003 22.8067 28.5609 22.7884 28.6665 22.013C29.189 18.154 31.0707 8.47208 31.5611 6.19041C29.0587 11.3736 26.4656 17.8526 25.1343 21.5262C24.8515 22.3063 24.3377 22.2492 24.0173 21.6783C23.5669 20.8766 22.6931 20.4673 22.5488 19.52C22.0913 16.5074 23.0713 10.7656 23.2078 7.1328C21.8463 11.1009 19.5602 18.8053 18.5588 22.2859C18.1447 23.7262 16.7703 23.4912 17.1356 22.0875C18.6575 16.2459 21.9349 5.91451 23.3544 2.19913C23.6878 1.32628 24.5614 1.35628 25.287 0.994703ZM16.988 0.276867C17.4025 0.377686 17.3687 0.871949 17.1155 1.5469C16.368 3.53841 15.3315 6.1548 14.1463 9.23988C14.8914 9.15392 15.2955 9.1248 15.2955 9.1248C16.3652 8.99123 16.5644 9.53192 16.2632 10.1074C16.0233 10.5662 15.7343 10.2603 14.7333 11.7687C14.1694 12.6188 13.2487 12.8432 12.7373 12.9565C11.5053 16.2539 10.1852 19.9319 8.90231 23.8519C8.7156 24.4228 8.17025 24.2977 8.0063 24.0658C7.40384 23.2153 6.95958 23.1871 6.49255 22.4992C6.43641 22.3879 6.32656 22.2364 6.39262 21.9633C6.73608 20.5445 7.64786 17.6289 9.03483 13.7904C7.28756 14.1733 5.39718 14.5848 4.61675 14.7681C3.68017 17.2709 2.76674 19.7813 1.90138 22.2613C1.36449 23.7996 -0.032889 23.5023 0.457489 22.0483C1.23859 19.7321 2.10084 17.3266 2.96542 14.9939C1.99751 14.8893 1.67011 14.1983 1.12913 13.621C0.920235 13.398 0.464787 13.4294 0.241781 13.1167C-0.159376 12.5549 -0.119386 12.3054 0.807078 12.0351C2.01542 11.6824 3.23072 11.3545 4.45222 11.0517C6.01774 6.96736 7.43244 3.46375 8.18649 1.59421C8.76775 0.153621 10.2661 0.287785 9.69694 1.7089C8.54017 4.59706 7.35412 7.59746 6.18353 10.6399C7.62713 10.3112 9.0789 10.0203 10.5374 9.76749C11.6066 6.99241 12.7296 4.23883 13.9058 1.50834C13.988 1.31782 14.2279 1.04821 14.4777 1.00493C15.2651 0.868703 16.5454 0.169064 16.988 0.276867ZM14.3073 18.973C14.4304 18.8969 14.5529 18.8043 14.6738 18.7025C14.5807 18.4254 14.4893 18.1477 14.3994 17.8696C14.3082 17.9874 14.219 18.1066 14.1317 18.2274C13.6076 18.9549 13.9179 19.2138 14.3073 18.973ZM15.0046 15.5239C15.6536 14.7833 14.3706 14.4734 14.666 15.6062C14.6825 15.6701 14.7032 15.7452 14.7263 15.8279C14.8212 15.7286 14.914 15.6273 15.0046 15.5239ZM15.6799 17.7562C16.3223 17.1935 16.9359 17.7517 16.3007 18.7033C16.1641 18.9079 16.0098 19.128 15.8406 19.3448C15.9071 19.5386 15.9767 19.7313 16.0494 19.9228C16.3778 20.774 15.5154 20.9875 15.2374 20.2824C15.2131 20.2209 15.1878 20.1549 15.1617 20.0862C14.6376 20.5556 14.0313 20.8512 13.3836 20.6476C12.3178 20.3124 12.0468 18.7954 13.0417 17.6268C13.4409 17.1579 13.7414 16.8326 13.9924 16.5728C13.9309 16.3712 13.8719 16.1689 13.8154 15.9659C13.6862 15.4928 13.5696 14.9414 14.038 14.3793C14.9163 13.3257 16.9541 14.261 15.9233 15.8832C15.675 16.2739 15.3847 16.6429 15.082 17.017C15.1859 17.3513 15.2916 17.6851 15.3991 18.0183C15.4906 17.9286 15.5842 17.8412 15.6799 17.7562Z" fill="black"/>
</g>
<defs>
<clipPath id="clip0_618_15050">
<rect width="36" height="24" fill="white" transform="translate(0 0.265625)"/>
</clipPath>
</defs>
</svg>
