<svg width="24" height="25" viewBox="0 0 24 25" fill="none" xmlns="http://www.w3.org/2000/svg">
<path d="M12 22.0312C17.523 22.0312 22 17.5542 22 12.0312C22 6.50825 17.523 2.03125 12 2.03125C6.477 2.03125 2 6.50825 2 12.0312C2 17.5542 6.477 22.0312 12 22.0312ZM12 23.0312C5.925 23.0312 1 18.1062 1 12.0312C1 5.95625 5.925 1.03125 12 1.03125C18.075 1.03125 23 5.95625 23 12.0312C23 18.1062 18.075 23.0312 12 23.0312ZM12 8.34325C11.865 8.34513 11.731 8.31994 11.6059 8.26914C11.4808 8.21835 11.3672 8.14299 11.2717 8.04753C11.1763 7.95206 11.1009 7.83843 11.0501 7.71334C10.9993 7.58825 10.9741 7.45425 10.976 7.31925C10.976 6.74325 11.424 6.31125 12 6.31125C12.576 6.31125 13.024 6.74325 13.024 7.31925C13.0259 7.45425 13.0007 7.58825 12.9499 7.71334C12.8991 7.83843 12.8237 7.95206 12.7283 8.04753C12.6328 8.14299 12.5192 8.21835 12.3941 8.26914C12.269 8.31994 12.135 8.34513 12 8.34325ZM11.248 17.0312V9.59125H12.752V17.0312H11.248Z" fill="black"/>
</svg>
