<svg width="25" height="24" viewBox="0 0 25 24" fill="none" xmlns="http://www.w3.org/2000/svg">
<path d="M12.9688 0.100098C15.8688 0.100098 17.8688 1.5001 17.8688 3.9001V4.5001H21.6688V9.6001C21.6688 14.3001 23.7688 22.9001 22.1688 22.9001C21.4688 22.9001 17.1688 24.0001 12.9688 24.0001C8.36879 24.0001 3.76879 22.9001 3.76879 22.9001C2.26879 22.9001 4.26879 14.2001 4.26879 9.6001V4.4001H8.06879V3.8001C8.06879 1.4001 10.0688 0.100098 12.9688 0.100098ZM20.5688 5.5001H17.8688V7.7001H16.7688V5.5001H9.16879V7.7001H8.06879V5.5001H5.36879V9.5001C5.36879 10.8001 5.26879 12.4001 4.96879 14.8001L4.86879 15.7001C4.46879 18.7001 4.36879 19.6001 4.36879 20.7001V21.9001C5.16879 22.0001 5.96879 22.2001 6.76879 22.3001C8.86879 22.6001 10.9688 22.8001 12.8688 22.8001H13.3688C14.9688 22.8001 16.6688 22.6001 18.5688 22.3001C18.7688 22.3001 20.5688 21.9001 21.4688 21.8001V20.4001C21.4688 19.4001 21.2688 18.5001 20.9688 15.7001C20.9688 15.4001 20.8688 15.1001 20.8688 14.8001C20.5688 12.4001 20.4688 10.8001 20.4688 9.5001V5.5001H20.5688ZM12.9688 1.2001C10.6688 1.2001 9.16879 2.2001 9.16879 3.8001V4.4001H16.7688V3.8001C16.7688 2.1001 15.2688 1.2001 12.9688 1.2001Z" fill="black"/>
</svg>
